<?xml version="1.0" encoding="utf-8"?>
<!-- Generator: Adobe Illustrator 25.1.0, SVG Export Plug-In . SVG Version: 6.00 Build 0)  -->
<svg version="1.1" id="Layer_1" xmlns="http://www.w3.org/2000/svg" xmlns:xlink="http://www.w3.org/1999/xlink" x="0px" y="0px"
	 viewBox="0 0 500 500" style="enable-background:new 0 0 500 500;" xml:space="preserve">
<style type="text/css">
	.st0{fill:url(#SVGID_1_);}
	.st1{fill:#FFFFFF;}
</style>
<g>
	<linearGradient id="SVGID_1_" gradientUnits="userSpaceOnUse" x1="66.9661" y1="250" x2="433.0339" y2="250">
		<stop  offset="0" style="stop-color:#0D3D8C"/>
		<stop  offset="0.016" style="stop-color:#0C3F90"/>
		<stop  offset="0.1095" style="stop-color:#0A4BA5"/>
		<stop  offset="0.2024" style="stop-color:#0852B1"/>
		<stop  offset="0.2933" style="stop-color:#0854B5"/>
		<stop  offset="0.3564" style="stop-color:#095CB8"/>
		<stop  offset="0.6531" style="stop-color:#0D7DC4"/>
		<stop  offset="0.8161" style="stop-color:#0E89C8"/>
	</linearGradient>
	<path class="st0" d="M425.359,165.046l-25.263-18.922l14.542-27.99c2.789-5.363,2.88-11.728,0.253-17.169
		c-2.627-5.445-7.671-9.329-13.605-10.485l-30.92-6.017l0.986-31.57c0.191-6.046-2.482-11.823-7.211-15.59
		c-4.728-3.767-10.957-5.085-16.805-3.556l-30.522,7.994l-12.839-28.885c-2.453-5.524-7.368-9.569-13.261-10.907
		c-5.897-1.343-12.076,0.174-16.68,4.09l-24.032,20.456L225.966,6.038c-4.604-3.916-10.783-5.433-16.68-4.094
		c-5.893,1.343-10.808,5.387-13.261,10.912l-12.839,28.889l-30.526-7.998c-5.847-1.529-12.076-0.215-16.805,3.556
		c-4.729,3.767-7.402,9.544-7.211,15.586l0.986,31.575L98.715,90.48c-5.93,1.156-10.974,5.043-13.601,10.485
		s-2.532,11.807,0.253,17.169l14.542,27.99l-25.267,18.922c-4.828,3.618-7.671,9.295-7.675,15.329s2.83,11.716,7.654,15.342
		l25.288,18.989l-14.546,28.011c-2.785,5.363-2.876,11.728-0.249,17.169c2.627,5.445,7.667,9.329,13.601,10.481l30.92,6.021
		l-0.986,31.57c-0.327,10.588,7.986,19.436,18.574,19.764c0.116,0,0.236,0.008,0.352,0.008l-44.173,107.235
		c-3.15,7.646-1.571,16.423,4.045,22.49c5.615,6.071,14.248,8.326,22.113,5.777l40.729-13.191l17.837,36.572
		c3.502,7.327,10.92,11.968,19.034,11.919c0.249,0,0.493-0.004,0.742-0.012c8.384-0.211,15.835-5.4,18.943-13.187l23.788-58.255
		l22.532,55.072c3.112,7.787,10.559,12.975,18.943,13.187c0.249,0.008,0.493,0.012,0.742,0.012
		c8.118,0.05,15.532-4.596,19.034-11.919l17.841-36.572l40.729,13.191c7.866,2.549,16.494,0.294,22.109-5.777
		c5.615-6.067,7.194-14.844,4.045-22.49l-42.88-104.11c10.195-0.821,17.957-9.494,17.642-19.718l-0.986-31.574l30.903-6.013
		c5.934-1.152,10.974-5.039,13.601-10.481c2.627-5.445,2.536-11.807-0.253-17.169l-14.546-28.002l25.288-18.989
		c4.824-3.626,7.663-9.308,7.658-15.342c-0.004-6.034-2.851-11.711-7.679-15.329L425.359,165.046z M207.193,477.306l-17.832-36.564
		c-4.67-9.465-15.557-14.094-25.611-10.887l-40.725,13.187l49.946-121.263l10.22-2.677l12.835,28.885
		c4.306,9.685,15.648,14.045,25.333,9.735c0.253-0.112,0.506-0.232,0.754-0.356l17.049,41.678L207.193,477.306z M336.255,426.672
		c-10.054-3.212-20.945,1.417-25.611,10.887l-17.841,36.564l-53.468-130.687l10.667-9.084l24.036,20.456
		c3.44,2.951,7.824,4.575,12.358,4.579c1.455,0,2.901-0.166,4.318-0.489c5.905-1.318,10.833-5.367,13.261-10.907l12.839-28.889
		l11.695,3.063l48.47,117.695L336.255,426.672z"/>
	<path class="st1" d="M250.003,83.555c-53.499,0-96.869,43.369-96.869,96.867c0,53.496,43.37,96.865,96.869,96.865
		c53.494,0,96.864-43.369,96.864-96.865C346.806,126.948,303.476,83.617,250.003,83.555z M250.003,256.068
		c-41.782,0-75.648-33.866-75.648-75.647c0-41.778,33.866-75.648,75.648-75.648c41.777,0,75.648,33.87,75.648,75.648
		C325.6,222.181,291.76,256.023,250.003,256.068z"/>
</g>
</svg>
