<svg width="83" height="83" viewBox="0 0 83 83" fill="none" xmlns="http://www.w3.org/2000/svg">
<rect width="83" height="83" rx="10" fill="#142850"/>
<path d="M7.632 53.288C6 53.288 4.74 52.964 3.852 52.316C2.964 51.644 2.352 50.72 2.016 49.544C1.704 48.344 1.548 46.832 1.548 45.008V40.22C1.548 38.348 1.704 36.812 2.016 35.612C2.352 34.412 2.964 33.5 3.852 32.876C4.74 32.228 6 31.904 7.632 31.904C9.12 31.904 10.272 32.144 11.088 32.624C11.928 33.104 12.504 33.824 12.816 34.784C13.152 35.72 13.32 36.944 13.32 38.456V39.68H9.828V38.42C9.828 37.052 9.672 36.104 9.36 35.576C9.072 35.024 8.508 34.748 7.668 34.748C7.02 34.748 6.54 34.892 6.228 35.18C5.916 35.468 5.7 35.936 5.58 36.584C5.46 37.232 5.4 38.18 5.4 39.428V45.98C5.4 47.18 5.472 48.104 5.616 48.752C5.76 49.376 5.988 49.82 6.3 50.084C6.636 50.324 7.104 50.444 7.704 50.444C8.592 50.444 9.168 50.156 9.432 49.58C9.696 48.98 9.828 48.068 9.828 46.844V45.152H13.32V46.592C13.32 48.848 12.9 50.528 12.06 51.632C11.244 52.736 9.768 53.288 7.632 53.288Z" fill="#00A8CC"/>
<path d="M16.8528 32.192H20.7048V35.144C21.4248 33.968 22.1568 33.14 22.9008 32.66C23.6688 32.18 24.4728 31.94 25.3128 31.94C25.5288 31.94 25.7328 31.952 25.9248 31.976V36.224C25.1568 35.936 24.4488 35.792 23.8008 35.792C23.1768 35.792 22.6128 35.948 22.1088 36.26C21.6288 36.548 21.1608 37.064 20.7048 37.808V53H16.8528V32.192ZM27.9872 55.268C29.4272 55.268 30.4112 55.16 30.9392 54.944C31.4912 54.728 31.7672 54.32 31.7672 53.72C31.7672 53.432 31.5032 52.16 30.9752 49.904L26.7992 32.192H30.6872L33.4952 47.744L36.1952 32.192H40.0832L35.1152 54.152C34.7792 55.616 34.0712 56.66 32.9912 57.284C31.9112 57.908 30.3992 58.22 28.4552 58.22H27.9872V55.268ZM42.4088 32.192H46.2608V33.848C47.3888 32.552 48.7088 31.904 50.2208 31.904C52.1168 31.904 53.3768 32.72 54.0008 34.352C54.6488 35.96 54.9728 37.748 54.9728 39.716V44.756C54.9728 47.3 54.5768 49.364 53.7848 50.948C53.0168 52.508 51.6848 53.288 49.7888 53.288C48.5648 53.288 47.3888 52.676 46.2608 51.452V59.84H42.4088V32.192ZM49.0328 50.264C49.9208 50.264 50.4848 49.82 50.7248 48.932C50.9888 48.02 51.1208 46.628 51.1208 44.756V39.716C51.1208 38.18 50.9768 37.004 50.6888 36.188C50.4008 35.348 49.8008 34.928 48.8888 34.928C48.0008 34.928 47.1248 35.288 46.2608 36.008V49.328C47.1008 49.952 48.0248 50.264 49.0328 50.264ZM64.0193 53.288C61.0193 53.288 59.5193 51.632 59.5193 48.32V34.748H57.3233V32.192H59.5193V26.108H63.3713V32.192H66.7193V34.748H63.3713V48.068C63.3713 48.908 63.5033 49.496 63.7673 49.832C64.0313 50.168 64.5353 50.336 65.2793 50.336C65.7593 50.336 66.2273 50.3 66.6833 50.228V53.072C65.7233 53.216 64.8353 53.288 64.0193 53.288ZM75.2735 53.288C73.0655 53.288 71.4935 52.64 70.5575 51.344C69.6455 50.024 69.1895 48.116 69.1895 45.62V39.572C69.1895 37.076 69.6455 35.18 70.5575 33.884C71.4935 32.564 73.0655 31.904 75.2735 31.904C77.4575 31.904 79.0055 32.564 79.9175 33.884C80.8535 35.18 81.3215 37.076 81.3215 39.572V45.62C81.3215 48.116 80.8535 50.024 79.9175 51.344C79.0055 52.64 77.4575 53.288 75.2735 53.288ZM75.2735 50.444C75.9695 50.444 76.4735 50.24 76.7855 49.832C77.0975 49.424 77.2895 48.92 77.3615 48.32C77.4335 47.72 77.4695 46.904 77.4695 45.872V39.356C77.4695 38.324 77.4335 37.508 77.3615 36.908C77.2895 36.284 77.0975 35.768 76.7855 35.36C76.4735 34.952 75.9695 34.748 75.2735 34.748C74.5775 34.748 74.0615 34.952 73.7255 35.36C73.4135 35.768 73.2215 36.284 73.1495 36.908C73.0775 37.508 73.0415 38.324 73.0415 39.356V45.872C73.0415 46.904 73.0775 47.72 73.1495 48.32C73.2215 48.92 73.4135 49.424 73.7255 49.832C74.0615 50.24 74.5775 50.444 75.2735 50.444Z" fill="white"/>
</svg>
